<svg width="24" height="25" viewBox="0 0 24 25" fill="none" xmlns="http://www.w3.org/2000/svg">
<path d="M21 5.92139H15C14.2044 5.92139 13.4413 6.23743 12.8787 6.80011C12.3161 7.36261 12 8.12579 12 8.92139C12 8.12579 11.6839 7.36261 11.1213 6.80011C10.5587 6.23743 9.79564 5.92139 9 5.92139H3C2.8011 5.92139 2.61031 6.00049 2.46968 6.14111C2.32901 6.28174 2.25 6.47253 2.25 6.67139V18.6714C2.25 18.8702 2.32901 19.061 2.46968 19.2017C2.61031 19.3423 2.8011 19.4214 3 19.4214H9C9.79564 19.4214 10.5587 19.7374 11.1213 20.3001C11.6839 20.8626 12 21.6258 12 22.4214C12 21.6258 12.3161 20.8626 12.8787 20.3001C13.4413 19.7374 14.2044 19.4214 15 19.4214H21C21.1989 19.4214 21.3897 19.3423 21.5303 19.2017C21.671 19.061 21.75 18.8702 21.75 18.6714V6.67139C21.75 6.47253 21.671 6.28174 21.5303 6.14111C21.3897 6.00049 21.1989 5.92139 21 5.92139Z" fill="black" fill-opacity="0.1"/>
<path d="M12.3484 19.7697C11.25 20.8681 11.25 22.4214 11.25 22.4214C11.25 22.8356 11.5858 23.1714 12 23.1714C12.4142 23.1714 12.75 22.8356 12.75 22.4214C12.75 21.4894 13.409 20.8304 13.409 20.8304C14.068 20.1714 15 20.1714 15 20.1714H21C21.6213 20.1714 22.0607 19.732 22.0607 19.732C22.5 19.2927 22.5 18.6714 22.5 18.6714V6.67139C22.5 6.05007 22.0607 5.61073 22.0607 5.61073C21.6213 5.17139 21 5.17139 21 5.17139H15C13.4467 5.17139 12.3484 6.26974 12.3484 6.26974C11.25 7.36809 11.25 8.92139 11.25 8.92139C11.25 9.3356 11.5858 9.67139 12 9.67139C12.1989 9.67139 12.3897 9.59237 12.5303 9.45172C12.671 9.31106 12.75 9.1203 12.75 8.92139C12.75 7.98941 13.409 7.3304 13.409 7.3304C14.068 6.67139 15 6.67139 15 6.67139H21V18.6714H15C13.4467 18.6714 12.3484 19.7697 12.3484 19.7697Z" fill="#666666"/>
<path fill-rule="evenodd" clip-rule="evenodd" d="M1.5 6.67139C1.5 6.67139 1.5 6.05007 1.93934 5.61073C1.93934 5.61073 2.37868 5.17139 3 5.17139H9C9 5.17139 10.5533 5.17139 11.6517 6.26974C11.6517 6.26974 12.75 7.36809 12.75 8.92139V22.4214C12.75 22.8356 12.4142 23.1714 12 23.1714C11.5858 23.1714 11.25 22.8356 11.25 22.4214C11.25 22.4214 11.25 21.4894 10.591 20.8304C10.591 20.8304 9.93198 20.1714 9 20.1714H3C3 20.1714 2.37868 20.1714 1.93934 19.732C1.93934 19.732 1.5 19.2927 1.5 18.6714V6.67139ZM11.25 8.92139V19.4164C11.25 19.4164 10.2793 18.6714 9 18.6714H3V6.67139H9C9 6.67139 9.93198 6.67139 10.591 7.3304C10.591 7.3304 11.25 7.98941 11.25 8.92139Z" fill="#666666"/>
</svg>
