<svg width="24" height="25" viewBox="0 0 24 25" fill="none" xmlns="http://www.w3.org/2000/svg">
<path d="M3 2.17139H1.5V21.6714C1.5 22.0692 1.65804 22.4507 1.93934 22.732C2.22064 23.0134 2.60218 23.1714 3 23.1714H22.5V21.6714H3V2.17139Z" fill="#666666"/>
<path d="M22.5 7.42139H17.25V8.92139H19.9425L14.25 14.6139L11.0325 11.3889C10.9628 11.3186 10.8798 11.2628 10.7884 11.2247C10.697 11.1866 10.599 11.167 10.5 11.167C10.401 11.167 10.303 11.1866 10.2116 11.2247C10.1202 11.2628 10.0372 11.3186 9.9675 11.3889L4.5 16.8639L5.5575 17.9214L10.5 12.9789L13.7175 16.2039C13.7872 16.2742 13.8702 16.33 13.9616 16.3681C14.053 16.4061 14.151 16.4257 14.25 16.4257C14.349 16.4257 14.447 16.4061 14.5384 16.3681C14.6298 16.33 14.7128 16.2742 14.7825 16.2039L21 9.97889V12.6714H22.5V7.42139Z" fill="#666666"/>
</svg>
