<svg width="24" height="25" viewBox="0 0 24 25" fill="none" xmlns="http://www.w3.org/2000/svg">
<path d="M19.9999 2.67139H3.99988C2.89988 2.67139 2.00988 3.57139 2.00988 4.67139L1.99988 22.6714L5.99988 18.6714H19.9999C21.0999 18.6714 21.9999 17.7714 21.9999 16.6714V4.67139C21.9999 3.57139 21.0999 2.67139 19.9999 2.67139ZM6.99988 9.67139H16.9999C17.5499 9.67139 17.9999 10.1214 17.9999 10.6714C17.9999 11.2214 17.5499 11.6714 16.9999 11.6714H6.99988C6.44988 11.6714 5.99988 11.2214 5.99988 10.6714C5.99988 10.1214 6.44988 9.67139 6.99988 9.67139ZM12.9999 14.6714H6.99988C6.44988 14.6714 5.99988 14.2214 5.99988 13.6714C5.99988 13.1214 6.44988 12.6714 6.99988 12.6714H12.9999C13.5499 12.6714 13.9999 13.1214 13.9999 13.6714C13.9999 14.2214 13.5499 14.6714 12.9999 14.6714ZM16.9999 8.67139H6.99988C6.44988 8.67139 5.99988 8.22139 5.99988 7.67139C5.99988 7.12139 6.44988 6.67139 6.99988 6.67139H16.9999C17.5499 6.67139 17.9999 7.12139 17.9999 7.67139C17.9999 8.22139 17.5499 8.67139 16.9999 8.67139Z" fill="#666666"/>
</svg>
