<svg width="24" height="25" viewBox="0 0 24 25" fill="none" xmlns="http://www.w3.org/2000/svg">
<path d="M11.7999 11.5714C9.52988 10.9814 8.79988 10.3714 8.79988 9.42139C8.79988 8.33139 9.80988 7.57139 11.4999 7.57139C12.9199 7.57139 13.6299 8.11139 13.8899 8.97139C14.0099 9.37139 14.3399 9.67139 14.7599 9.67139H15.0599C15.7199 9.67139 16.1899 9.02139 15.9599 8.40139C15.5399 7.22139 14.5599 6.24139 12.9999 5.86139V5.17139C12.9999 4.34139 12.3299 3.67139 11.4999 3.67139C10.6699 3.67139 9.99988 4.34139 9.99988 5.17139V5.83139C8.05988 6.25139 6.49988 7.51139 6.49988 9.44139C6.49988 11.7514 8.40988 12.9014 11.1999 13.5714C13.6999 14.1714 14.1999 15.0514 14.1999 15.9814C14.1999 16.6714 13.7099 17.7714 11.4999 17.7714C9.84988 17.7714 8.99988 17.1814 8.66988 16.3414C8.51988 15.9514 8.17988 15.6714 7.76988 15.6714H7.48988C6.81988 15.6714 6.34988 16.3514 6.59988 16.9714C7.16988 18.3614 8.49988 19.1814 9.99988 19.5014V20.1714C9.99988 21.0014 10.6699 21.6714 11.4999 21.6714C12.3299 21.6714 12.9999 21.0014 12.9999 20.1714V19.5214C14.9499 19.1514 16.4999 18.0214 16.4999 15.9714C16.4999 13.1314 14.0699 12.1614 11.7999 11.5714Z" fill="#666666"/>
</svg>
