<svg width="24" height="25" viewBox="0 0 24 25" fill="none" xmlns="http://www.w3.org/2000/svg">
<path d="M10.0001 19.6719H13.0001V22.6719H10.0001V19.6719ZM12.0001 2.67188C17.3501 2.89187 19.6801 8.29187 16.5001 12.3419C15.6701 13.3419 14.3301 14.0019 13.6701 14.8419C13.0001 15.6719 13.0001 16.6719 13.0001 17.6719H10.0001C10.0001 16.0019 10.0001 14.5919 10.6701 13.5919C11.3301 12.5919 12.6701 12.0019 13.5001 11.3419C15.9201 9.10188 15.3201 5.93187 12.0001 5.67188C11.2045 5.67188 10.4414 5.98795 9.8788 6.55055C9.31619 7.11316 9.00012 7.87623 9.00012 8.67188H6.00012C6.00012 7.08058 6.63226 5.55445 7.75748 4.42923C8.8827 3.30402 10.4088 2.67188 12.0001 2.67188Z" fill="#666666"/>
</svg>
