<svg width="24" height="25" viewBox="0 0 24 25" fill="none" xmlns="http://www.w3.org/2000/svg">
<path d="M12 12.6713L3.048 9.09529L3.6 22.2713H1.2L1.776 8.57929L0 7.87129L12 3.07129L24 7.87129L12 12.6713ZM12 6.67129C11.34 6.67129 10.8 6.93529 10.8 7.27129C10.8 7.60729 11.34 7.87129 12 7.87129C12.66 7.87129 13.2 7.60729 13.2 7.27129C13.2 6.93529 12.66 6.67129 12 6.67129ZM12 13.8713L18.684 11.1953C19.536 12.3233 20.124 13.6793 20.316 15.1553C19.956 15.1073 19.584 15.0713 19.2 15.0713C16.14 15.0713 13.464 16.7153 12 19.1633C11.2569 17.9162 10.2027 16.8834 8.94057 16.1661C7.67846 15.4488 6.25171 15.0716 4.8 15.0713C4.416 15.0713 4.044 15.1073 3.684 15.1553C3.876 13.6793 4.464 12.3233 5.316 11.1953L12 13.8713Z" fill="#666666"/>
</svg>
