<svg width="25" height="25" viewBox="0 0 25 25" fill="none" xmlns="http://www.w3.org/2000/svg">
<path d="M21.375 3.82123C21.1171 3.6544 20.8222 3.55347 20.5162 3.52732C20.2102 3.50116 19.9024 3.55058 19.62 3.67123L10.365 7.31623C10.1459 7.4054 9.91156 7.45125 9.675 7.45123H3.75C3.25272 7.45123 2.77581 7.64877 2.42417 8.0004C2.07254 8.35203 1.875 8.82895 1.875 9.32623V9.47623H0V13.9762H1.875V14.1712C1.88675 14.6607 2.08947 15.1261 2.43983 15.4681C2.7902 15.81 3.26042 16.0014 3.75 16.0012L6 20.7712C6.15236 21.0924 6.39222 21.3642 6.69204 21.5552C6.99187 21.7462 7.33949 21.8489 7.695 21.8512H8.64C9.13468 21.8473 9.60775 21.648 9.95614 21.2968C10.3045 20.9456 10.5 20.4709 10.5 19.9762V16.1812L19.62 19.8262C19.8443 19.9155 20.0836 19.9613 20.325 19.9612C20.6996 19.9552 21.0643 19.8405 21.375 19.6312C21.6217 19.4646 21.8252 19.2417 21.9687 18.9809C22.1121 18.72 22.1914 18.4288 22.2 18.1312V5.36623C22.1986 5.061 22.1228 4.76073 21.979 4.49148C21.8352 4.22223 21.6279 3.99215 21.375 3.82123ZM8.625 9.32623V14.1712H3.75V9.32623H8.625ZM8.625 19.9762H7.68L5.835 16.0012H8.625V19.9762ZM11.055 14.3962C10.8769 14.3052 10.6912 14.2299 10.5 14.1712V9.22123C10.6894 9.18216 10.875 9.12696 11.055 9.05623L20.325 5.36623V18.0862L11.055 14.3962ZM22.245 9.85123V13.6012C22.7423 13.6012 23.2192 13.4037 23.5708 13.0521C23.9225 12.7004 24.12 12.2235 24.12 11.7262C24.12 11.2289 23.9225 10.752 23.5708 10.4004C23.2192 10.0488 22.7423 9.85123 22.245 9.85123Z" fill="#666666"/>
</svg>
