<svg width="24" height="25" viewBox="0 0 24 25" fill="none" xmlns="http://www.w3.org/2000/svg">
<path d="M16.493 3.67139H20.485C20.6267 3.67154 20.7638 3.72182 20.8719 3.81333C20.9801 3.90485 21.0524 4.03168 21.076 4.17139L21.782 8.40039C21.7986 8.48428 21.7935 8.57095 21.7673 8.65232C21.741 8.73368 21.6945 8.80702 21.632 8.86541C21.0411 9.38583 20.2804 9.67243 19.493 9.67136C17.993 9.67136 16.993 8.67136 16.993 8.67136M16.493 3.67139L16.993 8.67136M16.493 3.67139H11.993M16.993 8.67136C16.993 8.67136 15.993 9.67136 14.493 9.67136C12.993 9.67136 11.993 8.67136 11.993 8.67136M11.993 3.67139V8.67136M11.993 3.67139H7.49294M11.993 8.67136C11.993 8.67136 10.9929 9.67136 9.49294 9.67136C7.99294 9.67136 6.99294 8.67136 6.99294 8.67136L7.49294 3.67139M7.49294 3.67139L3.50201 3.67139C3.36 3.67133 3.22259 3.72165 3.11419 3.81339C3.00579 3.90512 2.93344 4.03233 2.91001 4.17239L2.20501 8.40139C2.18853 8.48523 2.19366 8.57196 2.2199 8.65327C2.24613 8.73464 2.29263 8.80797 2.35501 8.86636C2.68301 9.15636 3.41601 9.67238 4.49301 9.67238C5.99301 9.67238 6.99301 8.67238 6.99301 8.67238L7.49294 3.67139ZM2.99996 9.67136V19.6714C2.99996 20.2018 3.21068 20.7105 3.58575 21.0856C3.96082 21.4607 4.46953 21.6714 4.99996 21.6714H19C19.5304 21.6714 20.0391 21.4607 20.4142 21.0856C20.7892 20.7105 21 20.2018 21 19.6714V9.67136M14.833 21.6714V15.6714C14.833 15.1409 14.6223 14.6323 14.2472 14.2572C13.8721 13.8821 13.3634 13.6714 12.833 13.6714H10.833C10.3025 13.6714 9.79383 13.8821 9.41877 14.2572C9.04371 14.6323 8.833 15.1409 8.833 15.6714V21.6714" stroke="#666666" stroke-width="1.5" stroke-miterlimit="16"/>
</svg>
