<svg width="24" height="25" viewBox="0 0 24 25" fill="none" xmlns="http://www.w3.org/2000/svg">
<path d="M10 2.67188C5.584 2.67188 2 6.25588 2 10.6719C2 15.0879 5.584 18.6719 10 18.6719C14.416 18.6719 18 15.0879 18 10.6719C18 6.25588 14.416 2.67188 10 2.67188ZM10 5.87188C11.544 5.87188 12.8 7.12788 12.8 8.67188C12.8 10.2159 11.544 11.4719 10 11.4719C8.456 11.4719 7.2 10.2159 7.2 8.67188C7.2 7.12788 8.456 5.87188 10 5.87188ZM10 17.0719C8.376 17.0719 6.456 16.4159 5.088 14.7679C6.48928 13.6685 8.2189 13.0709 10 13.0709C11.7811 13.0709 13.5107 13.6685 14.912 14.7679C13.544 16.4159 11.624 17.0719 10 17.0719Z" fill="#666666"/>
</svg>
