<svg width="24" height="25" viewBox="0 0 24 25" fill="none" xmlns="http://www.w3.org/2000/svg">
<path d="M3 8.17139H21V5.92139C21 5.72253 20.921 5.53174 20.7803 5.39111C20.6397 5.25049 20.4489 5.17139 20.25 5.17139H3.75C3.55109 5.17139 3.36032 5.25049 3.21967 5.39111C3.07902 5.53174 3 5.72253 3 5.92139V8.17139Z" fill="black" fill-opacity="0.1"/>
<path fill-rule="evenodd" clip-rule="evenodd" d="M2.25 5.92139C2.25 5.92139 2.25 5.30007 2.68934 4.86073C2.68934 4.86073 3.12868 4.42139 3.75 4.42139H20.25C20.25 4.42139 20.8713 4.42139 21.3107 4.86073C21.3107 4.86073 21.75 5.30006 21.75 5.92139V19.4214C21.75 19.4214 21.75 20.0427 21.3107 20.482C21.3107 20.482 20.8713 20.9214 20.25 20.9214H3.75C3.75 20.9214 3.12868 20.9214 2.68934 20.482C2.68934 20.482 2.25 20.0427 2.25 19.4214V5.92139ZM3.75 5.92139V19.4214H20.25V5.92139H3.75Z" fill="#666666"/>
<path d="M3 8.92139H21C21.4142 8.92139 21.75 8.5856 21.75 8.17139C21.75 7.75717 21.4142 7.42139 21 7.42139H3C2.58579 7.42139 2.25 7.75717 2.25 8.17139C2.25 8.5856 2.58579 8.92139 3 8.92139Z" fill="#666666"/>
<path d="M9.87868 13.2927C9 12.414 9 11.1714 9 11.1714C9 10.7572 8.66421 10.4214 8.25 10.4214C7.83579 10.4214 7.5 10.7572 7.5 11.1714C7.5 13.0353 8.81802 14.3534 8.81802 14.3534C10.136 15.6714 12 15.6714 12 15.6714C13.864 15.6714 15.182 14.3534 15.182 14.3534C16.5 13.0353 16.5 11.1714 16.5 11.1714C16.5 10.7572 16.1642 10.4214 15.75 10.4214C15.3358 10.4214 15 10.7572 15 11.1714C15 12.414 14.1213 13.2927 14.1213 13.2927C13.2426 14.1714 12 14.1714 12 14.1714C10.7574 14.1714 9.87868 13.2927 9.87868 13.2927Z" fill="#666666"/>
</svg>
