<svg width="95" height="55" viewBox="0 0 95 55" fill="none" xmlns="http://www.w3.org/2000/svg">
<g clip-path="url(#clip0_3384_194276)">
<path d="M4.88548 52.1469C4.88548 52.5157 4.90463 52.8775 4.95729 53.1678H4.24637L4.18653 52.6324H4.1602C3.92083 52.9655 3.46125 53.2654 2.85326 53.2654C1.98675 53.2654 1.54871 52.6609 1.54871 52.0445C1.54871 51.0188 2.46309 50.4596 4.11233 50.4643V50.3763C4.11233 50.0265 4.01658 49.3934 3.14289 49.3934C2.74554 49.3934 2.32904 49.5172 2.03223 49.7076L1.8527 49.1983C2.20697 48.9698 2.71682 48.8223 3.25779 48.8223C4.56234 48.8223 4.8807 49.7076 4.8807 50.5595V52.1469H4.88548ZM4.13387 50.9974C3.28651 50.9784 2.32665 51.1283 2.32665 51.9541C2.32665 52.4563 2.66176 52.6895 3.05911 52.6895C3.61444 52.6895 3.96631 52.3396 4.09078 51.9803C4.11711 51.9018 4.13626 51.8113 4.13626 51.7352V50.9974H4.13387Z" fill="#6D5A4C"/>
<path d="M6.93204 47.7247C6.94162 47.9865 6.74773 48.1983 6.43895 48.1983C6.16367 48.1983 5.96979 47.9865 5.96979 47.7247C5.96979 47.463 6.17325 47.2393 6.4557 47.2393C6.73816 47.2393 6.93204 47.4534 6.93204 47.7247ZM6.06793 53.165V48.917H6.84348V53.165H6.06793Z" fill="#6D5A4C"/>
<path d="M8.23421 50.243C8.23421 49.7433 8.22463 49.3149 8.1983 48.9175H8.87571L8.90204 49.7528H8.93795C9.13183 49.1816 9.5986 48.8223 10.1204 48.8223C10.2114 48.8223 10.2712 48.8318 10.3406 48.8484V49.5767C10.2616 49.56 10.1803 49.5505 10.0749 49.5505C9.52679 49.5505 9.13902 49.9646 9.03369 50.5429C9.01694 50.6476 9.00018 50.7713 9.00018 50.9046V53.1678H8.23181V50.243H8.23421Z" fill="#6D5A4C"/>
<path d="M11.2119 50.3049C11.2119 49.7599 11.1952 49.3197 11.176 48.9175H11.8702L11.9085 49.6481H11.9229C12.2412 49.1293 12.7439 48.8223 13.4452 48.8223C14.4769 48.8223 15.2524 49.6909 15.2524 50.9808C15.2524 52.5062 14.3165 53.263 13.3088 53.263C12.7439 53.263 12.2508 53.0155 11.9923 52.5943H11.9779V54.9027H11.2095V50.3049H11.2119ZM11.9803 51.4377C11.9803 51.5495 11.9947 51.6566 12.0138 51.7518C12.155 52.2873 12.6218 52.6562 13.1771 52.6562C13.9958 52.6562 14.4745 51.9898 14.4745 51.0141C14.4745 50.1645 14.0245 49.4339 13.2035 49.4339C12.6745 49.4339 12.1766 49.8099 12.0282 50.3929C12.0018 50.4905 11.9779 50.6024 11.9779 50.7071V51.4353L11.9803 51.4377Z" fill="#6D5A4C"/>
<path d="M20.0039 51.004C20.0039 52.5747 18.91 53.2601 17.8783 53.2601C16.7198 53.2601 15.8293 52.4176 15.8293 51.0754C15.8293 49.6547 16.7629 48.8193 17.9477 48.8193C19.1326 48.8193 20.0039 49.7046 20.0039 51.004ZM16.6169 51.0492C16.6169 51.9797 17.1554 52.6794 17.9118 52.6794C18.6682 52.6794 19.2116 51.9869 19.2116 51.0278C19.2116 50.3115 18.8502 49.4 17.9334 49.4C17.0166 49.4 16.6193 50.2401 16.6193 51.0492H16.6169Z" fill="#6D5A4C"/>
<path d="M20.856 50.243C20.856 49.7433 20.8465 49.3149 20.8177 48.9175H21.4976L21.5239 49.7528H21.5574C21.7513 49.1816 22.2204 48.8223 22.7399 48.8223C22.8284 48.8223 22.8907 48.8318 22.9625 48.8484V49.5767C22.8811 49.56 22.8021 49.5505 22.6968 49.5505C22.1486 49.5505 21.7609 49.9646 21.6555 50.5429C21.6388 50.6476 21.6196 50.7713 21.6196 50.9046V53.1678H20.8513V50.243H20.856Z" fill="#6D5A4C"/>
<path d="M25.0976 47.8983V48.9169H26.2107V49.5047H25.0976V51.7965C25.0976 52.3224 25.2484 52.6199 25.6793 52.6199C25.8923 52.6199 26.0144 52.6008 26.1293 52.5651L26.1628 53.1434C26.0144 53.2053 25.7774 53.2577 25.4758 53.2577C25.1144 53.2577 24.8223 53.1339 24.638 52.9221C24.4178 52.6937 24.3388 52.3176 24.3388 51.8179V49.4999H23.6758V48.9121H24.3388V48.1315L25.0976 47.8936V47.8983Z" fill="#6D5A4C"/>
<path d="M32.7047 52.5509C32.7047 53.5219 32.5084 54.1192 32.0967 54.4904C31.6802 54.876 31.0818 54.9997 30.5408 54.9997C29.9998 54.9997 29.4637 54.876 29.1214 54.6475L29.3153 54.0597C29.6001 54.2358 30.0405 54.3953 30.5695 54.3953C31.3618 54.3953 31.9483 53.9812 31.9483 52.9102V52.4343H31.9291C31.6922 52.8317 31.2326 53.1458 30.5719 53.1458C29.5139 53.1458 28.7527 52.2534 28.7527 51.0754C28.7527 49.6356 29.6982 48.8193 30.6749 48.8193C31.4169 48.8193 31.8238 49.2049 32.0105 49.5571H32.0273L32.0632 48.9145H32.7406C32.7215 49.2239 32.7071 49.5642 32.7071 50.083V52.5485L32.7047 52.5509ZM31.9363 50.5923C31.9363 50.459 31.9268 50.3448 31.8908 50.2401C31.7496 49.7927 31.369 49.4262 30.8065 49.4262C30.0621 49.4262 29.5355 50.0497 29.5355 51.0302C29.5355 51.8655 29.9544 52.558 30.7969 52.558C31.2733 52.558 31.7089 52.2629 31.8741 51.7703C31.9196 51.637 31.9363 51.4919 31.9363 51.3562V50.5947V50.5923Z" fill="#6D5A4C"/>
<path d="M33.9327 50.243C33.9327 49.7433 33.9207 49.3149 33.8968 48.9175H34.5742L34.6005 49.7528H34.6364C34.8327 49.1816 35.2971 48.8223 35.8189 48.8223C35.9051 48.8223 35.9673 48.8318 36.0367 48.8484V49.5767C35.9577 49.56 35.8811 49.5505 35.771 49.5505C35.2253 49.5505 34.8375 49.9646 34.7346 50.5429C34.7154 50.6476 34.6963 50.7713 34.6963 50.9046V53.1678H33.9303V50.243H33.9327Z" fill="#6D5A4C"/>
<path d="M40.6421 51.004C40.6421 52.5747 39.5482 53.2601 38.5166 53.2601C37.3604 53.2601 36.47 52.4176 36.47 51.0754C36.47 49.6547 37.4059 48.8193 38.5884 48.8193C39.7708 48.8193 40.6445 49.7046 40.6445 51.004H40.6421ZM37.2551 51.0492C37.2551 51.9797 37.7937 52.6794 38.5525 52.6794C39.3113 52.6794 39.8474 51.9869 39.8474 51.0278C39.8474 50.3115 39.4884 49.4 38.5692 49.4C37.6501 49.4 37.2551 50.2401 37.2551 51.0492Z" fill="#6D5A4C"/>
<path d="M45.0321 52.006C45.0321 52.4463 45.0417 52.8318 45.0656 53.165H44.3762L44.3332 52.4724H44.3164C44.1129 52.8128 43.6653 53.2625 42.9041 53.2625C42.2315 53.2625 41.4296 52.8937 41.4296 51.4015V48.917H42.2076V51.2683C42.2076 52.0774 42.4541 52.62 43.1579 52.62C43.6797 52.62 44.0435 52.2606 44.1823 51.9179C44.2278 51.8037 44.2518 51.6657 44.2518 51.5229V48.917H45.0297V52.006H45.0321Z" fill="#6D5A4C"/>
<path d="M46.2242 50.3049C46.2242 49.7599 46.205 49.3197 46.1859 48.9175H46.8872L46.9207 49.6481H46.9375C47.2558 49.1293 47.7609 48.8223 48.4574 48.8223C49.4891 48.8223 50.2671 49.6909 50.2671 50.9808C50.2671 52.5062 49.3287 53.263 48.3258 53.263C47.7609 53.263 47.2678 53.0155 47.0117 52.5943H46.9949V54.9027H46.2265V50.3049H46.2242ZM46.9925 51.4377C46.9925 51.5495 47.0093 51.6566 47.026 51.7518C47.1697 52.2873 47.634 52.6562 48.1894 52.6562C49.0104 52.6562 49.4867 51.9898 49.4867 51.0141C49.4867 50.1645 49.0367 49.4339 48.2133 49.4339C47.6843 49.4339 47.1936 49.8099 47.0428 50.3929C47.0165 50.4905 46.9901 50.6024 46.9901 50.7071V51.4353L46.9925 51.4377Z" fill="#6D5A4C"/>
<path d="M89.8297 30.464V30.4592C89.035 31.0351 88.1924 31.5468 87.3019 31.9799H87.3067C87.1607 32.0489 87.1057 32.2203 87.1057 32.3464V43.5244H90.2342V30.7424C90.2342 30.0975 89.8297 30.4663 89.8297 30.4663V30.464Z" fill="#6D5A4C"/>
<path d="M13.158 37.8462L13.0671 37.9937C11.7218 40.1737 10.2258 41.1113 8.15046 41.1161C5.23497 41.1113 3.15726 39.1313 3.15248 36.3826C3.15966 33.6149 5.23736 31.6254 8.15046 31.6206C10.0941 31.6254 11.5902 32.4964 12.6673 34.2622L12.7535 34.4074L15.377 32.7296L15.274 32.5892C13.4979 30.1641 11.0827 28.9195 8.15046 28.9219C3.44929 28.929 0.00719431 32.0632 -0.00238037 36.385C0.00719431 40.6901 3.44929 43.81 8.15046 43.8195H8.16004C11.3436 43.8195 13.9192 42.3702 15.5661 39.6572L15.6474 39.524L13.158 37.8486V37.8462Z" fill="#6D5A4C"/>
<path d="M28.4512 29.2119V34.3856H28.4272H21.2247H21.1983V34.3618L21.2007 29.2119H18.0722V43.4766H21.1983V37.0653H28.4512V43.4766H31.551V29.2119H28.4512Z" fill="#6D5A4C"/>
<path d="M50.2408 43.2362L42.9424 29.2119H40.6996L33.351 43.4766H36.5896L38.4041 39.9639L38.4112 39.952H38.416H45.2571V39.9616L47.1242 43.4742H50.3676L50.2408 43.2338V43.2362ZM41.8198 33.3576L41.8294 33.3766L43.852 37.2152L43.8688 37.2509H39.7924L39.8115 37.2152L41.8079 33.3766L41.8174 33.3576H41.8198Z" fill="#6D5A4C"/>
<path d="M62.5131 29.2119V38.0149L62.4748 37.9744L54.0371 29.2119H52.1628V43.4742H55.2603V34.6712L55.3009 34.7117L63.7626 43.4742H65.6129V29.2119H62.5131Z" fill="#6D5A4C"/>
<path d="M76.7698 38.1959H80.7241V38.2221V39.1574L80.7169 39.1621C79.6853 40.4805 78.364 41.1112 76.6118 41.1136C73.7011 41.1088 71.6234 39.1288 71.6162 36.3801C71.621 33.6148 73.6987 31.6228 76.6118 31.6181C78.5579 31.6228 80.0539 32.4915 81.1311 34.2573L81.2172 34.4025L83.8383 32.7271L83.7354 32.5867C81.9617 30.1593 79.5464 28.9146 76.6118 28.917C71.9106 28.9265 68.4685 32.0584 68.4637 36.3825C68.4685 40.6876 71.913 43.8099 76.6118 43.817C79.6948 43.8218 82.1962 42.5153 83.7952 40.0593L83.8239 40.0189V35.521H76.7674V38.1959H76.7698Z" fill="#6D5A4C"/>
<path d="M71.1902 3.80778C71.7359 1.09955 75.0105 1.41844 75.0105 1.41844C78.7901 1.75638 82.1795 6.14476 84.0035 9.00055C86.8448 13.4413 88.7501 18.7126 88.8602 24.022C88.8602 24.1195 88.9392 24.1362 89.0086 24.0981C89.1307 24.0124 89.2552 23.9268 89.3773 23.8363C89.5281 23.7269 89.6741 23.6079 89.8201 23.4913C89.923 23.408 90.0236 23.3199 90.1241 23.2342C90.1911 23.1724 90.2342 23.07 90.2366 22.9272C90.0834 17.1871 88.3121 11.428 84.7 6.89679C82.9096 4.65262 79.6494 1.52315 76.3701 0.892502C76.3701 0.892502 72.7197 0.0667045 70.8885 3.17237L71.1926 3.81016" fill="url(#paint0_linear_3384_194276)"/>
<path d="M67.03 14.4552C67.9132 21.3138 73.816 26.6137 80.9635 26.6137C82.888 26.6137 84.7192 26.2305 86.39 25.5356C86.5934 25.4452 86.5839 25.3857 86.4738 25.3523C77.7967 25.5189 70.1633 20.1025 67.109 14.191C67.0204 14.1077 67.0084 14.2743 67.03 14.4575V14.4552Z" fill="url(#paint1_linear_3384_194276)"/>
<path d="M94.5141 9.01966C94.4997 8.9673 94.4854 8.91495 94.471 8.86497C94.3992 8.61271 94.1239 7.91542 93.9252 7.47754C89.6765 -1.2207 78.6728 -1.89419 71.9298 3.20814L71.8963 3.23432C71.8963 3.23432 70.1896 4.45516 69.0023 6.11152C67.8151 7.76787 67.3028 9.32428 67.1209 10.2334C66.9893 10.8902 66.9629 11.2257 66.9869 11.3876C66.9869 11.3923 66.9869 11.3971 66.9869 11.4019C66.9869 11.4637 67.0108 11.4994 67.0467 11.5137C67.1281 11.5661 67.3387 11.4423 67.4895 11.3566C67.602 11.2924 67.985 11.1068 68.3201 10.9568C69.3853 10.4951 70.5798 10.1215 71.8317 9.85973C71.7646 9.75502 71.6808 9.65269 71.6066 9.54322C71.0992 8.78644 70.7114 7.90828 70.4888 7.07059C69.6055 7.63698 68.7606 8.31999 67.9707 9.11723C71.3745 1.43042 86.7514 -3.70286 94.3896 9.18387C94.4614 9.30286 94.5428 9.30524 94.5428 9.20052C94.55 9.15769 94.5332 9.08391 94.5189 9.02442L94.5141 9.01966Z" fill="url(#paint2_linear_3384_194276)"/>
<path d="M79.6996 13.3939C77.3945 12.0779 74.965 10.7071 73.1745 8.71521C71.9442 7.3492 70.9316 5.45486 71.2141 3.61288C71.408 2.82754 72.1069 1.96128 73.0811 1.61621C73.0811 1.61621 73.0764 1.61621 73.074 1.61621C72.5593 1.77328 72.0399 2.0184 71.5229 2.36347C71.4415 2.43725 71.3649 2.51102 71.2883 2.5848C69.663 4.59812 70.1657 7.40631 71.5971 9.53863C73.2942 12.0684 76.2216 14.1103 78.8451 15.5857C81.6433 17.1588 84.6713 18.3606 87.7974 19.1103C89.2671 19.4625 90.5885 19.5386 92.0989 19.6386C92.3215 19.6529 92.5465 19.6624 92.7715 19.6671C92.9917 19.6671 93.1497 19.5672 93.2359 19.4292C93.2981 19.3173 93.4202 19.0912 93.4202 19.0912C93.4656 19.0056 93.7433 18.4344 93.8247 18.2511C88.8076 18.0274 83.9867 15.8404 79.6996 13.3939Z" fill="url(#paint3_linear_3384_194276)"/>
<path d="M94.9976 12.5372C94.9808 12.235 94.751 11.6972 94.325 11.2022C89.5663 5.93085 79.3717 2.40158 71.6497 6.3973C72.0207 7.25165 72.5665 8.04889 73.1697 8.71762C73.4234 8.99844 73.7179 9.29592 73.9716 9.52438C81.3537 8.72952 90.318 11.4163 93.0683 19.591C93.1449 19.5458 93.2047 19.4839 93.2454 19.4125C94.3609 17.4135 95 15.1146 95 12.6681C95 12.6229 94.9976 12.5801 94.9976 12.5348V12.5372Z" fill="url(#paint4_linear_3384_194276)"/>
</g>
<defs>
<linearGradient id="paint0_linear_3384_194276" x1="70.8862" y1="12.4537" x2="90.2342" y2="12.4537" gradientUnits="userSpaceOnUse">
<stop offset="0.38" stop-color="#DED5CF"/>
<stop offset="1" stop-color="#6D5A4C"/>
</linearGradient>
<linearGradient id="paint1_linear_3384_194276" x1="85.6072" y1="20.3904" x2="66.1467" y2="20.3904" gradientUnits="userSpaceOnUse">
<stop stop-color="#FFCB05"/>
<stop offset="0.62" stop-color="#ED1B2F"/>
<stop offset="1" stop-color="#822A85"/>
</linearGradient>
<linearGradient id="paint2_linear_3384_194276" x1="66.9773" y1="5.76169" x2="94.538" y2="5.76169" gradientUnits="userSpaceOnUse">
<stop stop-color="#FFCB05"/>
<stop offset="0.62" stop-color="#ED1B2F"/>
<stop offset="1" stop-color="#822A85"/>
</linearGradient>
<linearGradient id="paint3_linear_3384_194276" x1="70.2782" y1="10.6405" x2="93.8247" y2="10.6405" gradientUnits="userSpaceOnUse">
<stop offset="0.38" stop-color="#DED5CF"/>
<stop offset="1" stop-color="#6D5A4C"/>
</linearGradient>
<linearGradient id="paint4_linear_3384_194276" x1="67.0275" y1="12.1327" x2="94.8228" y2="12.1327" gradientUnits="userSpaceOnUse">
<stop stop-color="#FFCB05"/>
<stop offset="0.62" stop-color="#ED1B2F"/>
<stop offset="1" stop-color="#822A85"/>
</linearGradient>
<clipPath id="clip0_3384_194276">
<rect width="95" height="55" fill="white"/>
</clipPath>
</defs>
</svg>
