<svg width="256" height="62" viewBox="0 0 256 62" fill="none" xmlns="http://www.w3.org/2000/svg">
<g clip-path="url(#clip0_3110_104955)">
<path d="M83.0539 0H53V6.63564H83.0539V0Z" fill="url(#paint0_linear_3110_104955)"/>
<path d="M71.8297 8.14697H64.1143V37.6622H71.8297V8.14697Z" fill="url(#paint1_linear_3110_104955)"/>
<path d="M115.699 22.8245C116.779 21.9983 117.704 21.0623 118.478 20.0191C119.252 18.9759 119.864 17.8439 120.313 16.6203C120.763 15.3967 120.988 14.1208 120.988 12.79C120.988 11.0644 120.638 9.42773 119.937 7.87993C119.236 6.33475 118.282 4.97521 117.077 3.80652C115.871 2.63783 114.459 1.72013 112.841 1.05343C111.223 0.389346 109.494 0.0546875 107.662 0.0546875H86.5652V37.6645H94.2806V6.69033H107.662C108.417 6.69033 109.147 6.85243 109.847 7.17663C110.548 7.50083 111.16 7.94007 111.683 8.49957C112.203 9.05647 112.619 9.70487 112.925 10.4422C113.231 11.1795 113.382 11.9612 113.382 12.79C113.382 13.6188 113.228 14.4711 112.925 15.245C112.619 16.0189 112.206 16.683 111.683 17.2425C111.16 17.7994 110.551 18.2413 109.847 18.5655C109.147 18.8897 108.417 19.0518 107.662 19.0518H98.7593L112.572 37.6671H121.529L112.195 24.8246C113.453 24.3226 114.624 23.6559 115.701 22.8271L115.699 22.8245Z" fill="url(#paint2_linear_3110_104955)"/>
<path d="M152.179 5.93495C152.595 5.46695 152.801 4.87346 152.801 4.15447V0H124.816V6.63564H150.631C151.248 6.63564 151.763 6.40295 152.179 5.93495Z" fill="url(#paint3_linear_3110_104955)"/>
<path d="M188.108 18.8324L203 0H193.773L183.522 13.0046L173.378 0H164.096L178.881 18.8324L178.131 19.4781C172.259 23.4496 167.294 29.9702 159.827 31.0526C159.691 31.0369 159.549 31.0291 159.403 31.0291H136.364C135.247 31.0291 134.322 30.6055 133.585 29.761C132.847 28.9165 132.479 27.8629 132.479 26.6053V22.0717L158.378 22.1266C159.241 22.1266 159.96 21.9018 160.538 21.4521C161.113 21.0024 161.4 20.4351 161.4 19.7527V15.6531L132.479 15.5982L132.424 10.1496H124.761L124.816 26.6079C124.816 28.1191 125.119 29.5414 125.725 30.8696C126.332 32.2004 127.153 33.3691 128.191 34.3757C129.226 35.3822 130.452 36.1823 131.867 36.7758C131.89 36.7862 131.917 36.7941 131.94 36.8045C130.578 37.3562 129.616 38.6896 129.616 40.2505C129.616 42.3055 131.281 43.9709 133.336 43.9709C135.391 43.9709 137.057 42.3055 137.057 40.2505C137.057 39.2413 136.654 38.3262 136 37.6569C136.121 37.6595 136.241 37.6647 136.364 37.6647H152.997C152.349 38.334 151.949 39.2439 151.949 40.2505C151.949 42.3055 153.614 43.9709 155.669 43.9709C157.724 43.9709 159.39 42.3055 159.39 40.2505C159.39 39.2439 158.99 38.334 158.341 37.6647H161.152L162.305 37.7248C165.008 37.364 170.156 35.2018 173.364 32.888C176.324 30.7519 179.08 28.3675 181.624 25.7608L183.47 24.7124L193.721 37.6621H203.003C200.555 34.4959 198.082 31.3585 195.583 28.2472C193.083 25.136 190.592 21.9985 188.11 18.8324H188.108Z" fill="url(#paint4_linear_3110_104955)"/>
<path d="M150.827 61.5222L149.209 57.7782H141.548L139.93 61.5222H137.695L144.44 46.3711H146.291L153.057 61.5222H150.822H150.827ZM142.294 56.0317H148.464L145.379 48.8183L142.294 56.0317Z" fill="#6D5A4C"/>
<path d="M164.637 45.861V61.522H162.509V59.6918C162.198 60.3297 161.732 60.8187 161.115 61.1612C160.498 61.501 159.779 61.671 158.956 61.671C158.033 61.671 157.212 61.4357 156.488 60.9677C155.764 60.4997 155.201 59.8434 154.796 58.999C154.391 58.1545 154.19 57.1793 154.19 56.0733C154.19 54.9674 154.388 53.9948 154.786 53.1581C155.183 52.3215 155.74 51.6757 156.456 51.2208C157.173 50.7658 158.007 50.541 158.956 50.541C159.764 50.541 160.477 50.7109 161.095 51.0508C161.712 51.3907 162.177 51.8744 162.488 52.4967V45.8584H164.637V45.861ZM161.712 58.9571C162.242 58.2826 162.509 57.3361 162.509 56.1151C162.509 54.8942 162.242 53.9477 161.712 53.2758C161.178 52.6012 160.43 52.264 159.466 52.264C158.501 52.264 157.724 52.5986 157.178 53.2653C156.632 53.932 156.36 54.868 156.36 56.0733C156.36 57.2786 156.632 58.2486 157.178 58.9362C157.724 59.6238 158.48 59.9689 159.445 59.9689C160.41 59.9689 161.178 59.6317 161.712 58.9571Z" fill="#6D5A4C"/>
<path d="M183.595 54.8419V61.5246H181.446V54.9491C181.446 54.0261 181.286 53.3542 180.967 52.928C180.649 52.5019 180.133 52.2901 179.425 52.2901C178.601 52.2901 177.953 52.5751 177.477 53.1424C177.001 53.7098 176.763 54.4837 176.763 55.4615V61.5272H174.614V54.9517C174.614 54.0287 174.455 53.3568 174.136 52.9307C173.817 52.5045 173.302 52.2927 172.593 52.2927C171.77 52.2927 171.119 52.5777 170.635 53.145C170.151 53.7124 169.911 54.4863 169.911 55.4641V61.5298H167.782V53.8274C167.782 52.7058 167.725 51.6992 167.613 50.8051H169.613L169.804 52.5934C170.115 51.9398 170.562 51.4378 171.145 51.0822C171.725 50.7266 172.408 50.5514 173.187 50.5514C174.847 50.5514 175.932 51.2391 176.442 52.6143C176.769 51.9764 177.247 51.4718 177.877 51.1031C178.507 50.7345 179.221 50.5488 180.016 50.5488C182.4 50.5488 183.59 51.9816 183.59 54.8471L183.595 54.8419Z" fill="#6D5A4C"/>
<path d="M186.489 46.1172H188.978V48.3735H186.489V46.1172ZM186.68 61.5219V50.7972H188.808V61.5219H186.68Z" fill="#6D5A4C"/>
<path d="M201.512 54.842V61.5247H199.363V54.9701C199.363 54.0342 199.183 53.3518 198.819 52.9282C198.459 52.502 197.881 52.2903 197.086 52.2903C196.179 52.2903 195.452 52.5752 194.906 53.1426C194.359 53.7099 194.087 54.4682 194.087 55.4198V61.5274H191.959V53.825C191.959 52.7034 191.901 51.6968 191.789 50.8026H193.789L193.98 52.6537C194.32 51.9739 194.814 51.451 195.46 51.0902C196.106 50.7294 196.84 50.5464 197.661 50.5464C200.229 50.5464 201.512 51.9791 201.512 54.8447V54.842Z" fill="#6D5A4C"/>
</g>
<defs>
<linearGradient id="paint0_linear_3110_104955" x1="209.382" y1="-44.8442" x2="49.4861" y2="9.63711" gradientUnits="userSpaceOnUse">
<stop stop-color="#FFCB05"/>
<stop offset="0.22" stop-color="#ED1B2F"/>
<stop offset="0.85" stop-color="#822A85"/>
</linearGradient>
<linearGradient id="paint1_linear_3110_104955" x1="215.356" y1="-27.3111" x2="55.4576" y2="27.1702" gradientUnits="userSpaceOnUse">
<stop stop-color="#FFCB05"/>
<stop offset="0.22" stop-color="#ED1B2F"/>
<stop offset="0.85" stop-color="#822A85"/>
</linearGradient>
<linearGradient id="paint2_linear_3110_104955" x1="217.871" y1="-19.9254" x2="57.9754" y2="34.5532" gradientUnits="userSpaceOnUse">
<stop stop-color="#FFCB05"/>
<stop offset="0.22" stop-color="#ED1B2F"/>
<stop offset="0.85" stop-color="#822A85"/>
</linearGradient>
<linearGradient id="paint3_linear_3110_104955" x1="194.665" y1="-16.0218" x2="73.1945" y2="25.366" gradientUnits="userSpaceOnUse">
<stop stop-color="#FFCB05"/>
<stop offset="0.22" stop-color="#ED1B2F"/>
<stop offset="0.85" stop-color="#822A85"/>
</linearGradient>
<linearGradient id="paint4_linear_3110_104955" x1="225.636" y1="2.86289" x2="65.7405" y2="57.3416" gradientUnits="userSpaceOnUse">
<stop stop-color="#FFCB05"/>
<stop offset="0.22" stop-color="#ED1B2F"/>
<stop offset="0.85" stop-color="#822A85"/>
</linearGradient>
<clipPath id="clip0_3110_104955">
<rect width="150" height="61.6712" fill="white" transform="translate(53)"/>
</clipPath>
</defs>
</svg>
