<svg width="297" height="122" viewBox="0 0 297 122" fill="none" xmlns="http://www.w3.org/2000/svg">
<g clip-path="url(#clip0_1812_66799)">
<path d="M59.5066 0H0V13.1265H59.5066V0Z" fill="url(#paint0_linear_1812_66799)"/>
<path d="M37.2829 16.1157H22.0063V74.5024H37.2829V16.1157Z" fill="url(#paint1_linear_1812_66799)"/>
<path d="M124.143 45.1514C126.281 43.517 128.114 41.6654 129.646 39.6018C131.179 37.5382 132.39 35.2987 133.28 32.8782C134.171 30.4577 134.616 27.9338 134.616 25.3012C134.616 21.8877 133.922 18.65 132.535 15.5882C131.148 12.5315 129.258 9.8421 126.872 7.53022C124.485 5.21834 121.69 3.40296 118.485 2.0841C115.281 0.770415 111.859 0.108398 108.23 0.108398H66.459V74.5076H81.7355V13.2349H108.23C109.726 13.2349 111.17 13.5556 112.558 14.1969C113.945 14.8383 115.157 15.7072 116.192 16.814C117.222 17.9156 118.045 19.1983 118.651 20.6568C119.257 22.1153 119.557 23.6617 119.557 25.3012C119.557 26.9407 119.251 28.6268 118.651 30.1577C118.045 31.6886 117.227 33.0023 116.192 34.1091C115.157 35.2108 113.95 36.0848 112.558 36.7262C111.17 37.3675 109.726 37.6882 108.23 37.6882H90.6033L117.952 74.5128H135.688L117.207 49.1079C119.697 48.1149 122.016 46.7961 124.149 45.1565L124.143 45.1514Z" fill="url(#paint2_linear_1812_66799)"/>
<path d="M196.375 11.7404C197.198 10.8147 197.607 9.64061 197.607 8.21831V0H142.195V13.1265H193.31C194.532 13.1265 195.552 12.6662 196.375 11.7404Z" fill="url(#paint3_linear_1812_66799)"/>
<path d="M267.513 37.2539L297 0H278.731L258.433 25.7255L238.347 0H219.97L249.244 37.2539L247.759 38.5314C236.132 46.3877 226.301 59.2866 211.516 61.4279C211.247 61.3968 210.968 61.3813 210.678 61.3813H165.06C162.85 61.3813 161.017 60.5434 159.557 58.8729C158.098 57.2023 157.368 55.118 157.368 52.6303V43.662L208.648 43.7706C210.357 43.7706 211.78 43.3259 212.924 42.4363C214.063 41.5467 214.633 40.4244 214.633 39.0745V30.9648L157.368 30.8562L157.259 20.0777H142.086L142.195 52.6355C142.195 55.6249 142.795 58.4384 143.996 61.0658C145.197 63.6984 146.823 66.0102 148.878 68.0015C150.928 69.9927 153.356 71.5753 156.156 72.7494C156.203 72.7701 156.255 72.7856 156.301 72.8063C153.604 73.8976 151.699 76.5353 151.699 79.623C151.699 83.6881 154.997 86.9827 159.066 86.9827C163.135 86.9827 166.432 83.6881 166.432 79.623C166.432 77.6266 165.635 75.8164 164.341 74.4923C164.579 74.4975 164.817 74.5079 165.06 74.5079H197.995C196.711 75.8319 195.919 77.6317 195.919 79.623C195.919 83.6881 199.216 86.9827 203.285 86.9827C207.354 86.9827 210.652 83.6881 210.652 79.623C210.652 77.6317 209.86 75.8319 208.576 74.5079H214.141L216.424 74.6268C221.777 73.9131 231.97 69.6358 238.322 65.0586C244.182 60.8331 249.638 56.1162 254.675 50.9597L258.33 48.8858L278.628 74.5027H297.005C292.16 68.2394 287.262 62.033 282.313 55.8783C277.365 49.7236 272.431 43.5172 267.518 37.2539H267.513Z" fill="url(#paint4_linear_1812_66799)"/>
</g>
<defs>
<linearGradient id="paint0_linear_1812_66799" x1="309.636" y1="-88.7102" x2="-6.89715" y2="19.2411" gradientUnits="userSpaceOnUse">
<stop stop-color="#FFCB05"/>
<stop offset="0.22" stop-color="#ED1B2F"/>
<stop offset="0.85" stop-color="#822A85"/>
</linearGradient>
<linearGradient id="paint1_linear_1812_66799" x1="321.465" y1="-54.027" x2="4.92653" y2="53.9242" gradientUnits="userSpaceOnUse">
<stop stop-color="#FFCB05"/>
<stop offset="0.22" stop-color="#ED1B2F"/>
<stop offset="0.85" stop-color="#822A85"/>
</linearGradient>
<linearGradient id="paint2_linear_1812_66799" x1="326.445" y1="-39.416" x2="9.91168" y2="68.53" gradientUnits="userSpaceOnUse">
<stop stop-color="#FFCB05"/>
<stop offset="0.22" stop-color="#ED1B2F"/>
<stop offset="0.85" stop-color="#822A85"/>
</linearGradient>
<linearGradient id="paint3_linear_1812_66799" x1="280.497" y1="-31.694" x2="40.0311" y2="50.3133" gradientUnits="userSpaceOnUse">
<stop stop-color="#FFCB05"/>
<stop offset="0.22" stop-color="#ED1B2F"/>
<stop offset="0.85" stop-color="#822A85"/>
</linearGradient>
<linearGradient id="paint4_linear_1812_66799" x1="341.82" y1="5.66334" x2="25.2865" y2="113.609" gradientUnits="userSpaceOnUse">
<stop stop-color="#FFCB05"/>
<stop offset="0.22" stop-color="#ED1B2F"/>
<stop offset="0.85" stop-color="#822A85"/>
</linearGradient>
<clipPath id="clip0_1812_66799">
<rect width="297" height="121.997" fill="white"/>
</clipPath>
</defs>
</svg>
